<?xml version="1.0" encoding="UTF-8" standalone="no"?><!DOCTYPE svg PUBLIC "-//W3C//DTD SVG 1.1//EN" "http://www.w3.org/Graphics/SVG/1.1/DTD/svg11.dtd"><svg width="100%" height="100%" viewBox="0 0 4217 1559" version="1.1" xmlns="http://www.w3.org/2000/svg" xmlns:xlink="http://www.w3.org/1999/xlink" xml:space="preserve" xmlns:serif="http://www.serif.com/" style="fill-rule:evenodd;clip-rule:evenodd;stroke-linejoin:round;stroke-miterlimit:2;"><path d="M1629.5,1180.75l84.791,0c60.296,0 92.329,26.851 92.329,75.841c-0,11.777 -1.414,23.082 -5.653,45.693c-8.008,41.454 -26.38,64.536 -50.875,73.015c19.314,9.421 32.032,27.322 32.032,56.056c0,9.422 -0.942,18.843 -4.71,39.099c-9.893,58.411 -49.462,80.08 -116.353,80.08l-96.568,0l65.007,-369.784Zm64.536,61.238l-18.843,105.518l9.421,0c23.082,0 35.33,-10.363 41.454,-41.924l4.711,-28.264c1.884,-9.421 2.826,-19.785 2.826,-28.735c-5.653,-4.239 -17.429,-6.595 -30.148,-6.595l-9.421,0Zm-29.677,247.779c25.908,0 34.858,-8.008 39.569,-36.743l2.826,-15.545c1.885,-11.776 2.356,-19.784 1.885,-25.908c-4.711,-6.124 -16.488,-8.479 -30.148,-8.479l-13.19,-0l-15.074,86.675l14.132,0Zm305.245,-309.017l88.56,0c64.536,0 100.807,39.098 88.56,111.171l-8.479,47.577c-7.066,41.925 -24.967,69.246 -51.346,85.262l26.85,125.774l-79.138,0l-16.016,-107.873l-18.843,-0l-18.842,107.873l-76.312,0l65.006,-369.784Zm51.346,200.202c23.082,-0 36.272,-8.951 42.867,-52.288l7.066,-40.512c1.884,-12.718 3.297,-24.495 3.297,-36.743c-8.008,-4.71 -20.256,-7.065 -34.387,-7.065l-5.182,-0l-24.024,136.608l10.363,-0Zm384.388,-207.268c76.312,0 98.452,46.635 85.733,119.65l-25.909,145.087c-12.718,72.544 -41.924,119.179 -118.236,119.179c-76.312,0 -98.923,-45.222 -85.734,-119.179l25.438,-145.087c13.19,-73.015 42.395,-119.65 118.708,-119.65Zm-7.066,64.065c-19.785,-0 -25.438,14.603 -32.975,55.585l-25.437,143.674c-3.769,19.314 -6.124,36.272 -8.008,51.346c5.181,3.297 12.247,5.182 21.669,5.182c19.784,-0 26.379,-14.603 33.445,-55.115l24.966,-144.616c3.769,-19.785 6.124,-35.801 8.008,-50.875c-4.239,-3.297 -14.131,-5.181 -21.668,-5.181Zm293.004,319.851c-70.188,0 -97.981,-35.801 -85.733,-107.873l47.106,-268.977l77.725,0l-45.693,260.969c-3.297,17.9 -5.182,31.561 -7.066,46.635c4.711,3.768 13.19,5.182 19.785,5.182c21.198,-0 24.966,-13.19 31.561,-51.817l45.693,-260.969l77.725,0l-47.106,268.977c-12.719,73.957 -46.635,107.873 -113.997,107.873Zm619.447,-376.85l-40.041,369.784l-75.37,0l25.438,-190.309l18.842,-111.642l-10.834,0l-32.033,111.171l-55.585,190.78l-88.56,0l11.306,-193.135l6.595,-108.816l-11.306,0l-20.255,111.171l-40.983,190.78l-75.841,0l88.56,-369.784l122.005,0l-8.479,142.261l-13.19,145.087l36.743,-145.087l40.982,-142.261l122.006,0Zm256.727,-7.066c76.312,0 98.452,46.635 85.733,119.65l-25.908,145.087c-12.719,72.544 -41.925,119.179 -118.237,119.179c-76.312,0 -98.923,-45.222 -85.733,-119.179l25.437,-145.087c13.19,-73.015 42.396,-119.65 118.708,-119.65Zm-7.066,64.065c-19.785,-0 -25.437,14.603 -32.974,55.585l-25.438,143.674c-3.768,19.314 -6.123,36.272 -8.008,51.346c5.182,3.297 12.248,5.182 21.669,5.182c19.785,-0 26.38,-14.603 33.446,-55.115l24.966,-144.616c3.768,-19.785 6.124,-35.801 8.008,-50.875c-4.24,-3.297 -14.132,-5.181 -21.669,-5.181Zm376.854,-56.999l80.08,0l-109.757,369.784l-128.6,0l20.726,-369.784l79.61,0l-21.198,215.747l-9.421,89.973l12.248,-0l22.611,-90.444l53.701,-215.276Zm-3564.96,-1180.75c162.643,0 236.134,71.081 236.134,192.762c-0,36.143 -16.867,114.453 -24.095,144.572l-209.629,-0l16.867,-93.972c3.614,-20.481 7.228,-39.757 10.842,-60.238c-8.433,-7.228 -21.685,-12.047 -40.961,-12.047c-39.758,-0 -50.6,33.733 -50.6,75.9c-0,201.195 226.495,191.557 226.495,459.014c-0,187.943 -112.043,275.891 -301.191,275.891c-167.462,-0 -236.133,-63.853 -236.133,-180.715c-0,-45.781 13.252,-101.2 22.89,-138.547l210.834,-0l-13.253,69.876c-3.614,20.481 -8.433,45.781 -12.047,66.262c13.252,8.433 27.709,12.047 45.781,12.047c43.371,0 57.828,-27.709 57.828,-71.08c0,-183.124 -226.495,-185.534 -226.495,-468.653c-0,-171.076 96.381,-271.072 286.733,-271.072Zm628.883,283.12c120.476,-0 157.823,95.176 128.909,259.023l-31.324,174.691c-28.914,163.848 -96.381,265.048 -243.362,265.048c-14.457,-0 -72.285,-4.819 -86.743,-9.638c-1.204,21.685 -8.433,69.876 -14.457,103.609l-19.276,104.815l-204.81,-0l126.5,-689.125l7.229,-190.352l173.486,-12.048l16.867,83.129c19.276,-27.71 71.081,-89.152 146.981,-89.152Zm-108.429,433.714l34.938,-193.967c3.614,-19.276 6.024,-38.552 9.638,-57.828c-31.324,-0 -59.033,19.276 -77.105,38.552l-60.238,314.443c13.253,3.614 24.095,4.819 37.348,4.819c37.347,0 42.167,-32.528 55.419,-106.019Zm274.686,12.048l33.733,-198.786c26.505,-156.619 96.381,-253 272.276,-253c175.896,-0 231.315,96.381 204.81,253l-33.734,198.786c-26.504,156.619 -96.381,253 -272.276,253c-175.895,-0 -231.314,-96.381 -204.809,-253Zm201.195,7.228c-4.819,26.505 -9.638,54.215 -14.457,80.719c10.843,3.615 19.276,6.024 34.938,6.024c37.347,0 42.166,-33.733 50.6,-81.924l36.143,-214.447c4.819,-27.71 9.638,-56.624 14.457,-84.334c-6.024,-3.614 -20.481,-6.024 -33.733,-6.024c-37.348,0 -42.167,33.734 -50.601,81.924l-37.347,218.062Zm345.766,45.781l137.343,-763.819l204.81,-0l-132.524,744.543c-2.409,14.457 -4.819,30.119 -7.228,44.576l57.828,0l-27.709,156.619c-25.3,4.819 -59.034,12.048 -113.248,12.048c-102.405,-0 -143.367,-60.238 -119.272,-193.967Zm759.001,-71.081l-245.771,0l-3.615,18.072c-6.023,31.323 -6.023,53.009 -3.614,66.262c10.843,12.047 40.962,18.071 73.491,18.071l175.895,0l-26.505,150.595c-57.828,7.229 -128.909,12.048 -186.738,12.048c-202.4,-0 -256.614,-110.838 -225.291,-283.119l33.734,-186.738c26.505,-145.777 86.743,-228.905 261.433,-228.905c148.186,-0 202.4,65.057 202.4,167.462c0,73.49 -37.347,219.266 -55.419,266.252Zm-149.39,-286.733c-34.938,-0 -49.396,14.457 -59.034,69.876l-18.071,102.405l75.9,-0l22.89,-119.272c3.615,-16.866 6.024,-31.324 8.434,-48.19c-8.434,-3.615 -19.276,-4.819 -30.119,-4.819Zm621.655,-424.077l162.643,0c-32.529,78.31 -87.948,160.234 -146.981,216.858l-199.991,-0c-20.481,-60.239 -43.371,-144.572 -51.804,-216.858l156.619,0c3.614,31.324 8.433,75.9 12.047,104.815l12.048,-0c14.457,-24.096 40.962,-72.286 55.419,-104.815Zm-98.79,277.096c143.366,-0 201.195,59.033 201.195,161.438c-0,68.671 -33.733,193.967 -46.986,236.133l-172.281,0l28.914,-161.438c4.819,-24.095 8.434,-48.19 12.048,-72.286c-4.819,-2.409 -13.252,-4.819 -27.709,-4.819c-33.734,0 -38.553,27.71 -45.781,69.877l-36.143,204.809c-7.229,38.553 -8.434,65.057 -4.819,79.515c13.252,12.047 43.371,16.866 74.695,16.866l160.233,0l-25.3,156.619c-44.576,7.229 -113.247,12.048 -157.824,12.048c-219.266,-0 -283.119,-90.357 -246.976,-295.167l31.324,-174.69c27.709,-154.21 87.948,-228.905 255.41,-228.905Zm652.98,6.024c109.633,-0 133.729,71.081 110.838,180.714l-63.852,302.395c-2.41,13.253 -6.024,31.324 -8.434,40.962l56.624,0l-27.709,156.619c-25.3,4.819 -65.057,12.048 -109.634,12.048c-114.452,-0 -145.776,-61.443 -118.066,-193.967l53.009,-254.205c3.614,-16.866 8.433,-34.938 12.048,-51.804c-21.686,-0 -60.238,20.48 -81.924,39.757l-80.719,448.171l-204.81,0l85.538,-472.267l7.229,-190.352l173.486,-12.048l16.866,83.129c34.938,-31.324 95.177,-89.152 179.51,-89.152Zm550.575,-283.12l162.643,0c-32.529,78.31 -87.948,160.234 -146.981,216.858l-199.991,-0c-20.481,-60.239 -43.371,-144.572 -51.804,-216.858l156.619,0c3.614,31.324 8.433,75.9 12.047,104.815l12.048,-0c14.457,-24.096 40.962,-72.286 55.419,-104.815Zm49.395,710.81l-245.771,0l-3.615,18.072c-6.023,31.323 -6.023,53.009 -3.614,66.262c10.843,12.047 40.962,18.071 73.491,18.071l175.895,0l-26.505,150.595c-57.828,7.229 -128.909,12.048 -186.738,12.048c-202.4,-0 -256.614,-110.838 -225.291,-283.119l33.734,-186.738c26.505,-145.777 86.743,-228.905 261.433,-228.905c148.186,-0 202.4,65.057 202.4,167.462c0,73.49 -37.347,219.266 -55.419,266.252Zm-149.39,-286.733c-34.938,-0 -49.396,14.457 -59.034,69.876l-18.071,102.405l75.9,-0l22.89,-119.272c3.615,-16.866 6.024,-31.324 8.434,-48.19c-8.434,-3.615 -19.276,-4.819 -30.119,-4.819Z" style="fill:#7ba508;"/></svg>